<?xml version="1.0" standalone="no"?>
<!DOCTYPE svg PUBLIC "-//W3C//DTD SVG 20010904//EN"
 "http://www.w3.org/TR/2001/REC-SVG-20010904/DTD/svg10.dtd">
<svg version="1.0" xmlns="http://www.w3.org/2000/svg"
 width="300.000000pt" height="247.000000pt" viewBox="0 0 300.000000 247.000000"
 preserveAspectRatio="xMidYMid meet">
<metadata>
Created by potrace 1.10, written by Peter Selinger 2001-2011
</metadata>
<g transform="translate(0.000000,247.000000) scale(0.100000,-0.100000)"
fill="#000000" stroke="none">
<path d="M65 1235 c0 -649 1 -958 2 -687 3 383 6 492 16 492 9 0 9 2 0 8 -10
6 -13 159 -16 688 -1 373 -2 148 -2 -501z"/>
<path d="M2932 1233 c2 -648 4 -1029 5 -848 7 856 7 2025 1 2025 -5 0 -7 -530
-6 -1177z"/>
<path d="M1133 2222 c-17 -9 -55 -32 -85 -49 -62 -38 -78 -41 -85 -13 -7 27
-92 70 -138 70 -35 0 -104 -23 -115 -38 -12 -18 -170 -103 -180 -97 -5 3 -10
31 -10 62 l0 55 -93 -4 c-69 -3 -102 -10 -135 -26 -23 -12 -42 -25 -42 -28 0
-3 7 -20 16 -37 37 -70 39 -65 -29 -61 l-62 5 53 -26 c40 -18 59 -22 72 -15
10 6 41 10 68 10 37 0 53 -5 68 -21 l19 -22 -52 7 c-75 10 -213 -3 -206 -19 2
-7 -1 -30 -7 -52 -14 -46 -33 -238 -31 -313 1 -35 -5 -67 -16 -88 -18 -34 -18
-34 10 -56 29 -24 110 -56 140 -56 12 0 17 -8 17 -25 0 -14 6 -25 13 -25 8 0
11 -16 9 -55 l-4 -55 -91 0 -92 0 0 -58 c0 -57 30 -238 45 -279 5 -12 19 -23
32 -25 13 -2 22 -8 21 -13 -23 -143 -33 -246 -33 -330 0 -98 -1 -105 -20 -105
-11 0 -20 -6 -20 -14 0 -9 23 -15 84 -19 47 -3 112 -12 145 -18 33 -7 64 -9
68 -5 5 4 13 69 19 144 l10 137 18 -63 c11 -34 23 -65 27 -68 5 -3 4 7 -1 21
-13 33 -13 38 0 30 5 -3 10 1 10 9 0 9 -4 16 -9 16 -16 0 -24 72 -9 81 10 7
10 9 -1 9 -8 0 -12 2 -9 5 3 3 13 3 22 -1 14 -5 16 -15 12 -48 -4 -29 -3 -35
3 -21 5 11 10 30 10 43 1 26 36 30 67 7 10 -8 26 -14 34 -14 10 0 8 3 -5 9
-19 8 -19 9 3 9 23 1 24 -1 20 -66 -2 -38 -8 -77 -12 -88 -8 -20 -7 -20 8 -1
10 12 16 40 17 70 l0 51 21 -80 c21 -85 24 -92 34 -82 3 3 -4 44 -16 92 -13
47 -20 88 -17 91 8 8 47 -5 47 -16 0 -5 -7 -7 -16 -3 -14 5 -14 3 -3 -15 15
-24 29 -20 29 9 0 18 4 20 33 14 17 -4 37 -11 42 -15 6 -4 23 -10 39 -14 23
-6 27 -11 22 -29 -4 -12 -9 -43 -13 -69 -5 -46 -23 -68 -23 -30 0 14 -2 15
-10 2 -6 -10 -5 -17 5 -23 8 -4 15 -17 15 -29 0 -16 -5 -19 -22 -15 -13 4 -59
9 -103 13 -63 5 -83 3 -91 -7 -16 -21 -36 -103 -37 -151 -1 -55 27 -187 43
-202 9 -8 11 -6 7 9 -39 134 -44 225 -16 303 10 30 14 32 62 32 29 0 76 -3
105 -6 l52 -7 0 -89 c0 -63 3 -89 12 -86 7 3 10 31 9 86 l-2 83 28 -7 c15 -3
72 -19 126 -35 55 -16 139 -34 189 -40 74 -10 87 -14 72 -23 -12 -7 -89 -11
-212 -11 -160 0 -186 -2 -150 -11 53 -14 294 -6 361 11 36 9 50 9 52 1 3 -8
13 -175 15 -238 0 -5 4 -8 8 -8 10 0 4 145 -13 315 -7 72 -12 132 -10 134 10
10 146 33 270 46 178 18 185 18 185 0 0 -8 5 -15 10 -15 6 0 10 8 10 19 0 16
6 18 48 13 26 -2 48 -5 48 -6 1 0 4 -31 6 -68 l4 -68 -41 0 c-47 0 -74 -13
-54 -26 7 -4 14 -3 17 4 2 7 21 12 42 12 43 0 38 8 61 -120 11 -68 28 -113 28
-75 0 11 -6 56 -14 100 -8 44 -15 84 -15 89 0 8 71 3 163 -11 36 -5 37 -7 37
-48 0 -55 10 -105 21 -105 8 0 7 30 -6 113 -5 29 5 35 27 15 7 -7 22 -13 33
-14 11 -1 37 -4 58 -9 l37 -7 2 43 c1 24 0 63 -1 85 -2 39 0 42 28 47 17 4 31
10 31 15 0 5 -12 7 -27 4 -24 -4 -25 -3 -20 19 4 13 7 37 7 52 0 25 3 28 23
22 19 -5 20 -4 5 5 -10 6 -18 23 -18 38 0 26 3 24 55 -30 43 -44 55 -63 55
-88 0 -49 54 -241 58 -206 2 15 -8 71 -23 122 -31 111 -28 149 4 52 12 -37 27
-70 31 -73 10 -6 -17 74 -48 145 -11 25 -23 80 -26 123 -4 43 -9 84 -13 92 -3
8 -1 15 5 15 6 0 15 -12 20 -27 l10 -28 -1 32 c-1 18 -4 33 -7 33 -9 0 -43 61
-37 66 2 3 17 2 32 -2 l27 -7 -3 -117 c-2 -65 -1 -121 3 -125 3 -3 9 32 13 80
l7 86 29 -5 c96 -19 87 -11 95 -84 7 -64 0 -294 -12 -377 l-5 -40 17 30 c15
26 18 59 18 237 1 176 3 208 16 212 11 3 11 4 -2 5 -11 1 -18 9 -18 20 0 11
-4 23 -10 26 -5 3 -10 -4 -10 -15 0 -18 -4 -21 -22 -17 -13 3 -40 9 -60 12
-32 6 -38 11 -38 31 0 20 4 23 23 19 21 -5 22 -3 23 45 0 27 -2 50 -5 50 -7 0
-1 232 5 239 2 2 6 2 8 0 7 -6 9 -160 4 -194 -3 -16 -3 -24 -1 -17 8 21 23 3
23 -27 0 -41 11 -91 20 -91 4 0 4 17 -1 38 -13 54 -10 152 5 187 l13 30 11
-53 c7 -29 14 -78 18 -110 12 -128 24 -135 42 -24 19 120 17 137 -23 181 l-35
39 25 30 c21 25 23 31 9 36 -24 9 -42 7 -26 -2 7 -5 10 -16 6 -25 -12 -32 -24
-17 -24 28 0 25 -1 48 -2 52 -2 3 7 7 19 8 26 2 65 34 57 46 -3 5 0 44 5 86
13 97 19 273 9 266 -5 -2 -8 8 -8 24 0 23 2 25 11 13 9 -12 9 -11 4 5 -17 48
-17 58 -1 67 21 12 21 32 0 24 -14 -5 -15 0 -9 41 4 27 12 54 18 61 9 12 2 13
-43 8 -61 -8 -256 -11 -340 -6 l-55 3 50 7 50 7 -65 2 c-61 2 -67 5 -95 38
l-29 35 54 -7 c30 -3 64 -9 75 -11 20 -5 20 -5 0 8 -15 9 -74 13 -220 14 -110
1 -211 4 -225 8 -23 6 -24 6 -5 -6 12 -7 53 -13 102 -13 46 0 83 -3 83 -7 0
-8 -2 -9 -95 -13 -33 -1 -77 -5 -97 -10 l-38 -7 15 48 c18 59 18 67 3 62 -6
-2 -17 -22 -23 -44 l-11 -39 -73 -1 c-40 -1 -90 -5 -112 -8 -34 -5 -39 -4 -39
14 0 10 -8 23 -17 28 -19 10 -80 5 -88 -8 -2 -4 13 -4 35 0 39 7 60 -2 60 -25
0 -8 -27 -10 -87 -7 -105 4 -163 18 -163 37 0 8 -5 17 -11 21 -7 4 -9 -2 -7
-17 2 -19 -1 -24 -19 -23 -19 0 -21 -3 -16 -30 8 -41 13 -46 13 -12 0 36 24
29 28 -7 3 -22 -1 -27 -18 -27 -12 0 -19 -3 -17 -7 3 -5 -20 -9 -50 -9 -44 -1
-53 1 -49 13 4 8 9 27 13 41 13 57 51 56 56 0 3 -41 4 -40 5 10 2 50 1 52 -21
47 -21 -6 -22 -3 -23 52 -1 63 -21 113 -56 137 -28 20 -26 20 -65 -2z m-242
-23 c32 -14 55 -32 65 -50 8 -16 17 -29 20 -29 4 0 106 53 171 88 31 17 48 10
73 -30 16 -25 20 -47 18 -92 l-3 -60 -55 -12 c-81 -19 -225 -42 -306 -49 -71
-7 -71 -7 -78 19 -8 33 -25 34 -18 1 5 -31 13 -31 -168 -4 -113 17 -149 26
-164 42 -17 17 -29 19 -101 14 -46 -2 -89 0 -96 5 -10 6 -4 7 18 3 42 -8 48 6
23 56 -12 22 -19 46 -17 53 9 24 162 54 211 42 25 -6 26 -10 26 -71 0 -59 9
-80 25 -56 3 5 42 30 88 56 45 25 100 57 122 70 49 30 82 31 146 4z m591 -220
c46 -4 95 -8 111 -8 22 -1 27 -6 27 -26 0 -29 -24 -33 -54 -10 -15 11 -39 13
-108 8 -82 -6 -88 -5 -88 13 0 10 -3 30 -7 44 -6 25 -6 25 15 6 16 -13 46 -21
104 -27z m-256 14 c-3 -10 -8 -30 -11 -44 -5 -21 -14 -28 -38 -32 -27 -4 -37
1 -59 27 -14 17 -24 33 -22 35 3 3 104 27 127 30 5 1 6 -7 3 -16z m1034 -10
c12 -15 18 -29 13 -30 -11 -4 -203 -19 -203 -16 0 1 5 13 12 27 11 25 23 30
103 39 17 2 35 5 42 6 6 0 21 -11 33 -26z m-1838 -5 c38 1 39 -1 73 -68 40
-80 41 -82 18 -78 -12 2 -19 -4 -21 -18 -3 -20 -11 -23 -90 -29 -56 -4 -97 -3
-116 4 -16 7 -30 10 -32 8 -2 -1 6 -51 16 -111 11 -59 23 -144 26 -188 l7 -81
-29 7 c-53 14 -122 48 -129 63 -3 9 1 24 10 33 12 13 16 51 21 161 3 79 12
170 19 202 8 32 15 66 15 76 0 13 7 16 33 13 17 -2 43 1 57 7 14 5 38 7 54 4
16 -3 47 -5 68 -5z m248 -36 c0 -17 46 -99 72 -128 17 -19 17 -22 3 -28 -18
-7 -55 13 -55 31 0 6 6 14 13 16 7 3 4 6 -6 6 -11 1 -21 -8 -24 -20 -5 -17
-11 -20 -36 -15 -16 3 -40 6 -54 6 -19 0 -28 9 -44 48 -10 26 -28 63 -39 83
-11 20 -20 39 -20 41 0 2 43 -3 95 -11 67 -10 95 -19 95 -29z m1366 40 c6 -4
13 -15 17 -24 9 -25 -18 -30 -82 -13 -31 8 -66 12 -79 9 -12 -4 -22 -2 -22 4
0 6 28 15 63 20 83 13 90 13 103 4z m-956 -46 c0 -31 -3 -34 -40 -40 -29 -4
-60 1 -115 19 -42 15 -82 24 -87 23 -6 -2 18 -12 53 -23 78 -22 95 -35 49 -35
-19 0 -51 -3 -71 -6 -34 -6 -37 -4 -48 27 -6 18 -8 35 -5 38 7 7 246 38 257
33 4 -2 7 -18 7 -36z m650 34 c0 -5 -4 -10 -10 -10 -5 0 -7 -13 -3 -30 5 -30
5 -30 -39 -30 -43 0 -44 1 -46 34 -2 34 -2 35 40 39 24 2 46 4 51 5 4 1 7 -2
7 -8z m102 3 c-6 -2 -9 -10 -5 -16 4 -7 0 -8 -11 -4 -10 4 -31 7 -47 7 -16 0
-29 5 -29 10 0 6 24 10 53 9 28 0 46 -3 39 -6z m-707 -62 c-11 -10 -35 11 -35
31 l0 23 20 -25 c10 -14 17 -26 15 -29z m665 28 c51 -11 63 -22 34 -33 -28
-11 -37 -7 -23 11 13 17 12 17 -11 2 -35 -21 -54 -18 -58 9 -4 26 -7 25 58 11z
m-995 -35 c7 -42 9 -40 -32 -49 -30 -6 -33 -4 -52 34 -12 22 -21 43 -21 46 0
3 22 5 49 5 48 0 49 0 56 -36z m770 16 l30 -20 -64 3 c-86 4 -94 28 -11 36 8
0 29 -8 45 -19z m370 10 c4 -6 -8 -10 -29 -10 -20 0 -36 5 -36 10 0 6 13 10
29 10 17 0 33 -4 36 -10z m365 -36 c6 -14 10 -29 10 -33 0 -12 -67 -29 -141
-37 l-66 -6 -7 28 c-4 16 -9 37 -12 46 -6 20 16 24 129 27 75 1 78 0 87 -25z
m435 -24 c-4 -25 -9 -47 -11 -49 -2 -2 -52 1 -111 7 -88 9 -109 8 -117 -3 -6
-8 -23 -17 -37 -20 -26 -6 -27 -5 -30 44 -4 48 -3 51 21 52 49 2 91 7 95 10 2
2 47 4 100 4 l97 0 -7 -45z m-705 29 c0 -5 4 -8 9 -5 12 8 28 -14 36 -49 5
-23 4 -26 -4 -15 -6 8 -11 10 -11 4 0 -6 -6 -11 -14 -11 -7 0 -13 5 -13 11 1
40 -4 44 -65 52 l-63 8 50 6 c28 4 56 8 63 8 6 1 12 -3 12 -9z m384 -35 c8
-64 8 -74 -5 -74 -6 0 -8 9 -4 23 5 19 3 18 -19 -8 l-26 -30 -1 65 c-1 36 -4
53 -6 38 -4 -28 -33 -40 -33 -14 0 8 -3 21 -6 30 -5 13 2 16 44 16 l49 0 7
-46z m-1327 11 c8 -22 0 -27 -28 -16 -21 9 -22 10 -4 11 17 0 17 2 5 10 -13 8
-12 10 3 10 10 0 20 -7 24 -15z m101 -16 c-8 -25 -8 -33 3 -41 12 -8 11 -9 -1
-5 -20 5 -25 77 -5 77 11 0 12 -6 3 -31z m52 9 l0 -22 16 22 c20 29 41 28 46
-3 4 -19 1 -25 -13 -25 -11 0 -19 6 -20 13 0 10 -2 10 -6 0 -2 -7 -13 -13 -23
-13 -13 0 -18 -6 -15 -20 5 -24 -10 -27 -19 -4 -8 21 -8 59 1 67 14 15 33 6
33 -15z m231 -3 c4 -11 8 -23 8 -26 1 -3 -20 -11 -46 -17 -27 -6 -56 -14 -65
-17 -14 -6 -18 -2 -18 14 0 22 20 30 20 9 0 -7 5 -5 11 5 6 11 22 17 45 17 19
0 33 4 30 9 -3 5 -21 5 -41 1 -24 -5 -35 -4 -36 4 0 7 -2 7 -6 -1 -7 -19 -33
-15 -33 5 0 14 9 17 62 17 51 -1 62 -4 69 -20z m-313 -17 c-2 -17 -9 -34 -17
-36 -8 -3 -11 0 -7 7 4 6 1 11 -7 11 -14 0 -27 20 -27 41 0 5 14 9 31 9 28 0
30 -2 27 -32z m458 11 c8 -13 -41 -29 -86 -29 -46 0 -67 30 -22 31 15 0 36 4
47 8 22 9 52 3 61 -10z m180 6 c-15 -11 -16 -15 -5 -15 8 0 20 5 27 12 9 9 12
6 12 -15 0 -22 -5 -27 -25 -27 -14 0 -25 5 -25 10 0 6 -5 10 -11 10 -5 0 -7
-4 -4 -10 3 -5 2 -10 -3 -10 -15 0 -24 32 -12 44 7 7 10 6 10 -3 0 -9 5 -8 16
3 8 9 21 16 27 16 7 0 3 -7 -7 -15z m187 2 c17 -2 37 -23 37 -39 0 -5 -9 -8
-20 -8 -11 0 -20 7 -20 16 0 8 -4 13 -8 10 -5 -3 -34 -9 -65 -14 l-57 -9 0 28
0 29 58 -6 c31 -3 65 -6 75 -7z m-927 -17 l39 -20 -50 2 c-27 0 -59 -1 -70 -4
-11 -4 -37 -9 -57 -13 -35 -5 -38 -4 -38 19 0 26 4 27 111 34 14 1 43 -7 65
-18z m-188 -17 c-2 -16 -7 -26 -12 -25 -5 2 -13 -2 -17 -10 -6 -8 -9 -9 -9 -1
0 6 -3 20 -6 30 -5 15 -4 16 6 3 9 -12 10 -11 5 8 -5 18 -2 22 15 22 17 0 21
-5 18 -27z m852 20 c0 -5 -7 -16 -15 -26 -10 -15 -21 -17 -45 -12 -36 8 -33
15 13 32 39 14 47 15 47 6z m-910 -38 c0 -44 -21 -46 -49 -6 -23 31 -18 39 27
40 19 1 22 -4 22 -34z m1540 -10 c0 -19 -4 -35 -9 -35 -5 0 -9 6 -8 13 1 42
-3 47 -29 37 -31 -12 -34 -12 -34 -1 0 10 22 18 58 20 19 1 22 -4 22 -34z
m-1080 0 c0 -14 -2 -25 -4 -25 -2 0 -12 -3 -20 -6 -14 -5 -15 -2 -7 19 5 14 7
28 4 31 -4 3 1 6 10 6 11 0 17 -8 17 -25z m38 -3 c2 -15 -2 -22 -12 -22 -11 0
-16 9 -16 26 0 31 23 28 28 -4z m-208 8 c0 -5 -13 -10 -30 -10 -16 0 -33 0
-37 -1 -4 0 -9 4 -11 10 -2 7 12 11 37 11 23 0 41 -4 41 -10z m1553 -6 c42 -4
77 -10 77 -14 0 -8 -155 -3 -197 6 -36 7 -27 26 10 20 17 -3 67 -8 110 -12z
m-1624 -34 c22 -39 22 -40 2 -40 -12 0 -21 8 -23 22 -2 12 -9 23 -16 24 -7 1
-8 0 -2 -3 12 -6 14 -33 2 -33 -5 0 -22 11 -38 25 -16 14 -42 26 -59 26 -30 2
-30 2 5 9 19 4 51 8 71 9 31 1 38 -3 58 -39z m121 15 c0 -7 -6 -18 -14 -24
-11 -9 -14 -6 -18 17 -3 24 -1 28 14 24 10 -2 18 -10 18 -17z m336 10 c-3 -8
-1 -15 4 -15 6 0 10 8 10 18 0 14 2 15 10 2 6 -10 5 -17 -6 -23 -8 -5 -11 -13
-8 -19 5 -8 1 -9 -10 -5 -10 4 -23 7 -29 7 -7 0 -6 4 3 10 27 17 -11 11 -40
-6 -14 -8 -17 -13 -8 -10 10 3 20 1 23 -4 4 -6 2 -10 -4 -10 -5 0 -17 -3 -26
-6 -14 -6 -16 -1 -13 27 2 29 8 35 33 40 53 12 68 10 61 -6z m472 -2 c-5 -25
-118 -33 -118 -8 0 18 50 21 50 3 0 -7 5 -5 11 5 5 9 21 17 35 17 19 0 25 -5
22 -17z m64 -8 c4 -20 1 -25 -16 -25 -17 0 -18 2 -6 10 13 8 13 10 -1 10 -9 0
-16 7 -16 15 0 26 34 17 39 -10z m188 19 c0 -3 -5 -14 -10 -25 -8 -14 -21 -19
-55 -19 -41 0 -45 2 -45 25 0 24 3 25 55 25 30 0 55 -3 55 -6z m110 -19 c0
-23 -3 -25 -50 -25 -47 0 -50 1 -40 19 6 13 23 21 48 24 20 2 38 4 40 5 1 1 2
-9 2 -23z m-1116 9 c21 -8 20 -20 -1 -28 -9 -4 -20 -1 -25 6 -16 26 -7 35 26
22z m416 -9 c0 -9 -9 -15 -25 -15 -24 0 -32 10 -18 23 12 13 43 7 43 -8z m64
1 c-4 -11 0 -13 16 -9 16 4 18 8 8 14 -10 7 -9 9 5 9 28 0 26 -45 -4 -72 -24
-24 -38 -23 -32 2 3 11 14 20 24 20 11 0 19 3 19 8 0 4 -19 6 -42 5 -33 -2
-38 -1 -23 6 20 10 20 10 0 10 -17 1 -17 3 -5 11 22 14 40 12 34 -4z m136 0
c0 -20 -28 -46 -49 -46 -14 0 -17 6 -13 25 2 14 9 25 14 25 6 0 8 -7 4 -15 -3
-9 0 -15 10 -15 9 0 12 5 8 11 -3 6 0 15 7 20 18 11 19 11 19 -5z m666 -2 c-3
-9 -6 -29 -6 -45 0 -22 -5 -29 -20 -29 -16 0 -20 7 -20 35 0 22 6 38 18 44 25
15 35 13 28 -5z m-1379 -10 c6 -17 -12 -34 -38 -34 -16 0 -32 33 -21 44 12 12
53 5 59 -10z m273 0 c0 -8 -4 -12 -10 -9 -7 4 -7 -3 0 -19 6 -17 6 -26 0 -26
-17 0 -24 51 -9 61 19 12 19 11 19 -7z m1268 -3 c41 -5 77 -12 80 -15 3 -4 -4
-26 -16 -50 -17 -34 -22 -61 -22 -125 0 -44 -4 -81 -9 -81 -20 0 -41 13 -35
21 3 5 -2 9 -10 9 -9 0 -16 8 -16 17 0 9 -10 57 -22 106 -21 86 -22 88 -47 81
-47 -12 -56 -10 -53 11 6 40 11 44 44 39 18 -2 66 -8 106 -13z m-2158 -12 c0
-18 -1 -18 -24 -4 -19 13 -31 14 -58 6 -32 -10 -32 -11 -3 -7 17 2 42 -3 57
-12 35 -20 45 -81 30 -166 -10 -54 -10 -77 2 -65 11 10 24 130 19 168 -6 46
-6 47 33 26 23 -12 31 -26 46 -87 23 -96 23 -94 -17 -95 -34 -1 -35 0 -35 38
0 33 3 39 22 39 21 0 21 0 2 14 -16 13 -20 12 -27 0 -5 -9 -9 -35 -9 -59 0
-38 -3 -45 -29 -55 -16 -7 -34 -20 -39 -29 -5 -9 -18 -17 -29 -17 -12 -1 -30
-2 -41 -3 -24 -1 -26 -16 -4 -25 8 -3 12 -2 9 4 -4 6 7 10 25 10 21 0 30 -4
28 -12 -3 -9 -26 -13 -69 -13 l-64 0 -6 90 c-7 98 -24 212 -38 247 l-9 23 114
2 c107 1 114 0 114 -18z m69 -11 c14 -38 11 -42 -23 -27 -17 8 -26 20 -26 36
0 36 36 30 49 -9z m121 18 c0 -2 -10 -22 -23 -44 -19 -34 -25 -38 -44 -31 -23
8 -40 50 -28 68 6 10 95 16 95 7z m98 -8 c9 -9 12 -9 12 0 0 7 7 12 16 12 10
0 14 -7 12 -17 -2 -10 -10 -17 -17 -15 -7 1 -10 -2 -6 -8 8 -13 -5 -13 -38 3
-15 6 -27 18 -27 25 0 15 32 16 48 0z m180 -16 l42 -29 -25 -11 c-14 -6 -25
-19 -25 -28 0 -11 -5 -14 -17 -9 -10 4 -25 9 -35 12 -11 3 -17 19 -20 49 -3
39 -1 44 17 44 11 0 39 -13 63 -28z m379 13 c-4 -8 -2 -17 4 -20 15 -10 0 -25
-27 -25 -19 0 -24 5 -24 26 0 21 4 24 20 19 11 -4 20 -2 20 4 0 6 3 11 6 11 3
0 4 -7 1 -15z m1063 -21 c0 -28 -3 -35 -17 -32 -17 4 -19 21 -8 56 9 26 25 11
25 -24z m-1680 -31 c0 -46 -17 -33 -22 16 -3 31 -1 37 9 29 7 -6 13 -26 13
-45z m1239 48 c27 -17 -1 -31 -65 -31 -73 0 -84 14 -21 28 56 13 69 13 86 3z
m-791 -72 c-8 -6 -14 -3 -16 6 -2 8 -7 15 -11 15 -4 0 -7 9 -7 19 0 11 4 18 7
15 4 -2 11 1 15 8 5 8 11 0 17 -21 6 -25 5 -36 -5 -42z m52 42 c0 -17 -5 -33
-11 -36 -13 -9 -15 -7 -22 33 -6 27 -4 32 13 32 15 0 20 -7 20 -29z m60 5 c0
-22 -16 -36 -41 -36 -5 0 -9 14 -9 30 0 25 4 30 25 30 20 0 25 -5 25 -24z
m280 4 c0 -22 -20 -26 -38 -8 -9 9 -12 8 -12 -5 0 -9 5 -17 10 -17 17 0 11
-27 -7 -35 -10 -3 -62 -9 -115 -11 -83 -4 -98 -3 -98 10 0 13 28 36 44 36 2 0
7 -10 9 -22 4 -20 4 -19 6 5 1 18 6 27 19 27 9 0 27 3 39 6 19 5 22 3 18 -15
-2 -11 0 -23 6 -26 7 -5 13 20 11 46 -1 3 4 6 11 7 21 1 60 11 65 17 13 12 32
3 32 -15z m100 -1 c-15 -26 -83 -24 -88 4 -3 14 4 17 48 17 48 0 50 -1 40 -21z
m515 11 c-3 -5 -22 -10 -41 -10 -19 0 -34 5 -34 10 0 6 18 10 41 10 24 0 38
-4 34 -10z m155 -5 c0 -17 -15 -18 -84 -9 -67 10 -56 24 19 24 51 0 65 -3 65
-15z m-1642 -45 c-2 -14 -7 -17 -17 -10 -13 7 -13 13 -1 37 11 22 14 24 17 11
3 -10 3 -27 1 -38z m75 -6 c-22 -34 -33 -30 -33 11 0 33 1 34 24 23 23 -10 24
-12 9 -34z m1787 22 c-22 -21 -63 -31 -58 -15 2 7 15 16 29 20 38 11 44 10 29
-5z m-1459 -27 c5 -11 16 -19 24 -19 8 0 15 -4 15 -9 0 -5 8 -7 19 -4 10 3 22
0 25 -6 5 -7 -7 -11 -33 -11 -32 0 -41 4 -41 18 0 15 -2 15 -11 2 -9 -12 -10
-12 -5 4 6 16 4 17 -10 5 -18 -15 -93 -13 -109 2 -7 7 -3 15 10 25 17 13 20
13 27 -3 6 -16 7 -16 7 2 1 18 6 20 36 17 22 -3 40 -12 46 -23z m939 0 c0 -24
-4 -30 -17 -27 -11 2 -19 14 -21 31 -3 22 1 27 17 27 17 0 21 -6 21 -31z m47
0 c-3 -11 -1 -17 4 -13 5 3 9 0 9 -5 0 -6 -9 -11 -20 -11 -16 0 -20 7 -20 30
0 23 4 28 16 23 9 -3 14 -13 11 -24z m73 12 c0 -3 -5 -13 -10 -21 -9 -13 -11
-13 -20 0 -8 13 -10 12 -10 -4 0 -11 -2 -17 -5 -14 -4 3 -3 17 0 31 5 18 12
23 26 20 10 -3 19 -8 19 -12z m159 3 c2 -2 -17 -4 -42 -4 -26 0 -47 -4 -47
-10 0 -11 -33 -14 -43 -4 -3 3 -3 12 0 20 4 10 19 12 66 7 34 -3 64 -7 66 -9z
m414 -294 l-8 -85 -32 -3 c-30 -3 -33 -1 -33 25 0 15 -3 46 -7 68 -6 36 -5 39
10 27 21 -18 37 -7 37 24 0 16 6 24 18 25 13 1 13 2 2 5 -13 4 -14 20 -9 102
3 54 10 105 15 113 12 19 17 -189 7 -301z m-1903 290 c13 -8 12 -10 -2 -10
-10 0 -18 -7 -18 -15 0 -9 -10 -15 -22 -16 -22 -1 -22 -1 2 -8 16 -4 26 -15
28 -30 3 -21 1 -22 -30 -16 -50 11 -52 18 -16 63 37 46 37 46 58 32z m820 0
c-36 -12 -60 -12 -60 0 0 6 19 10 43 9 36 -1 38 -2 17 -9z m155 0 c3 -5 -2
-11 -12 -11 -17 -1 -17 -2 0 -6 11 -3 16 -10 13 -20 -3 -8 -6 -21 -6 -29 0 -9
-8 -13 -22 -11 -27 5 -34 22 -18 42 9 11 9 15 1 15 -18 0 -13 18 7 23 28 8 31
7 37 -3z m178 3 c-7 -2 -13 -13 -13 -22 0 -14 -16 -22 -64 -35 -52 -14 -64
-21 -59 -34 5 -14 3 -13 -9 2 -8 10 -12 31 -10 46 3 23 11 29 45 38 43 10 132
15 110 5z m-690 -17 c4 -11 -2 -14 -24 -14 -34 1 -39 15 -6 21 12 2 23 5 23 6
1 0 4 -5 7 -13z m443 1 c4 -4 -1 -7 -12 -8 -10 0 -13 -3 -6 -6 20 -8 15 -45
-5 -41 -12 2 -19 14 -21 34 -3 26 0 30 17 29 11 -1 24 -4 27 -8z m884 -139 c0
-4 -11 -3 -25 2 -14 5 -29 9 -33 9 -4 -1 -15 -1 -25 0 -16 1 -16 3 -2 31 8 16
15 36 15 45 0 9 8 28 17 42 l18 27 17 -75 c9 -41 17 -77 18 -81z m-1986 136
c21 -8 21 -54 1 -54 -8 0 -15 3 -15 8 0 4 -3 17 -6 30 -7 24 -4 25 20 16z
m1046 -20 c0 -22 -3 -25 -22 -20 -13 3 -31 6 -41 6 -11 0 -17 6 -15 13 4 10
29 19 71 26 4 0 7 -11 7 -25z m757 -32 c18 -71 18 -72 -22 -59 -26 8 -35 16
-34 31 1 17 2 18 6 4 2 -10 9 -18 14 -18 12 0 11 6 -7 42 -15 30 -15 32 2 45
22 16 26 13 41 -45z m91 -10 c-12 -34 -26 -62 -30 -62 -12 0 -10 38 2 45 6 4
8 21 4 40 -5 30 -3 34 18 37 12 2 24 3 26 2 1 0 -8 -29 -20 -62z m-1828 48
c11 0 21 -45 14 -64 -3 -9 -12 -16 -20 -16 -8 0 -14 -6 -14 -14 0 -8 -4 -18
-10 -21 -6 -4 -10 8 -10 29 0 30 4 36 23 37 l22 2 -22 4 c-17 3 -23 11 -23 30
0 19 4 24 16 19 9 -3 19 -6 24 -6z m1781 -41 c-4 -60 -7 -60 -13 4 -4 31 -2
47 6 47 7 0 10 -18 7 -51z m-112 -19 l-2 -35 -7 35 -7 35 -2 -32 c-1 -38 0
-38 -37 -18 -16 8 -45 18 -64 21 -32 6 -49 19 -50 36 0 11 154 14 162 3 4 -5
7 -26 7 -45z m-1091 41 c12 -1 22 -7 22 -15 0 -11 -8 -12 -32 -7 -18 4 -36 8
-40 9 -5 1 -13 2 -19 2 -5 0 -8 4 -5 8 3 5 15 8 28 6 13 -1 33 -3 46 -3z
m-261 -15 c4 -3 -10 -6 -29 -6 -20 0 -50 -3 -67 -6 -25 -5 -31 -3 -31 11 0 15
8 17 61 12 33 -3 63 -8 66 -11z m953 0 c0 -15 -62 -29 -87 -19 -12 5 -3 10 28
18 60 17 59 17 59 1z m65 4 c-11 -5 -14 -9 -7 -9 17 -1 15 -21 -3 -21 -8 0
-15 9 -15 20 0 14 6 20 23 19 21 0 21 -1 2 -9z m-519 -16 c-3 -9 -6 -22 -6
-30 0 -17 -24 -18 -42 -1 -7 6 -22 13 -33 14 -63 5 -125 17 -125 24 0 5 48 9
106 9 93 0 105 -2 100 -16z m36 -29 c2 -27 -1 -44 -7 -42 -13 5 -19 87 -7 87
6 0 12 -20 14 -45z m42 29 c10 -27 7 -52 -8 -57 -16 -6 -26 13 -26 49 0 27 24
33 34 8z m-460 0 c9 -3 16 -17 16 -30 0 -22 -3 -23 -57 -21 -52 2 -58 4 -59
24 -1 17 3 20 22 17 12 -2 26 0 29 6 7 11 26 13 49 4z m533 -10 c2 -7 -10 -17
-27 -22 -28 -10 -30 -9 -30 14 0 22 4 25 27 22 14 -2 28 -8 30 -14z m-679 -25
c2 -19 -6 -31 -35 -52 l-38 -27 -8 37 c-10 48 -4 61 30 66 42 6 48 3 51 -24z
m202 6 c0 -28 -15 -34 -24 -9 -10 25 -7 34 9 34 9 0 15 -9 15 -25z m36 -58 c0
-51 -4 -77 -11 -77 -8 0 -12 28 -13 81 -1 60 1 80 11 76 8 -2 12 -29 13 -80z
m74 58 c0 -18 -21 -20 -39 -2 -11 10 -12 9 -6 -3 5 -8 17 -28 28 -44 l21 -29
-25 6 c-13 4 -27 7 -32 7 -7 0 -7 58 0 73 8 14 53 7 53 -8z m95 -3 c27 -5 44
-15 52 -32 14 -28 4 -40 -34 -40 -12 0 -25 -4 -28 -10 -3 -5 -15 -10 -25 -10
-17 0 -19 5 -13 46 6 44 5 46 -15 39 -16 -5 -22 -2 -22 10 0 11 6 14 23 10 12
-3 40 -9 62 -13z m325 -2 c0 -11 -3 -20 -7 -21 -9 -1 -22 -3 -68 -14 l-30 -6
24 20 c12 12 27 18 32 15 5 -3 9 0 9 6 0 6 5 8 10 5 6 -3 10 -1 10 4 0 6 5 11
10 11 6 0 10 -9 10 -20z m51 10 c15 8 19 7 19 -3 0 -8 -11 -17 -25 -19 -29 -6
-36 -1 -27 20 3 10 7 12 10 4 2 -8 9 -9 23 -2z m329 -21 c0 -19 -4 -28 -11
-24 -6 4 -8 13 -5 21 4 10 -3 14 -22 15 -24 0 -25 1 -7 9 36 15 45 11 45 -21z
m-1248 -29 c0 -22 1 -45 2 -52 1 -6 -4 -13 -10 -15 -6 -2 -11 18 -13 52 -1 33
2 55 8 55 6 0 12 -18 13 -40z m1118 21 c0 -30 -30 -34 -58 -9 -19 17 -24 19
-19 6 3 -9 1 -19 -6 -22 -7 -3 -1 -3 12 0 16 4 21 3 17 -5 -4 -6 -23 -11 -42
-11 -29 0 -34 3 -34 24 0 26 14 31 93 35 30 1 37 -2 37 -18z m-1156 -13 c14
-53 10 -58 -34 -41 -31 12 -40 21 -40 40 0 20 5 23 34 23 26 0 35 -5 40 -22z
m1250 7 c4 -11 -1 -15 -18 -15 -13 0 -26 7 -30 15 -4 11 1 15 18 15 13 0 26
-7 30 -15z m62 -18 c2 -24 -12 -47 -29 -47 -7 0 -7 4 1 12 7 7 12 25 12 42 0
33 13 28 16 -7z m84 23 c0 -5 -16 -10 -35 -10 -19 0 -35 5 -35 10 0 6 16 10
35 10 19 0 35 -4 35 -10z m85 0 c15 -7 10 -9 -22 -9 -24 -1 -43 4 -43 9 0 12
37 12 65 0z m-1403 -49 c1 -13 -3 -26 -9 -28 -9 -3 -13 8 -13 39 1 45 14 38
22 -11z m602 43 c9 -3 16 -13 16 -21 0 -10 -6 -13 -16 -9 -8 3 -12 2 -9 -3 3
-5 1 -12 -5 -16 -5 -3 -10 -3 -10 2 0 4 -3 18 -6 31 -6 23 2 27 30 16z m291
-21 c-25 -17 -55 -17 -55 1 0 8 12 16 28 18 38 5 49 -3 27 -19z m-714 -25 c6
-24 14 -37 16 -30 7 17 33 15 33 -3 0 -11 -12 -15 -49 -15 -27 0 -51 -4 -53
-8 -1 -4 -30 0 -63 9 -33 10 -55 18 -49 18 6 1 24 12 40 26 33 28 54 32 54 10
0 -9 -10 -15 -27 -16 l-28 -1 30 -8 c21 -5 24 -8 10 -9 -18 -2 -18 -3 4 -12
13 -5 25 -8 27 -6 2 1 -1 19 -5 39 -10 42 -7 48 25 48 19 0 26 -8 35 -42z m38
20 c11 -29 -7 -38 -26 -12 -17 23 -17 34 2 34 9 0 19 -10 24 -22z m51 3 c0
-14 -5 -18 -19 -14 -31 8 -35 33 -6 33 18 0 25 -5 25 -19z m30 -33 c0 -62 -5
-60 -13 5 -4 28 -3 47 3 47 6 0 10 -23 10 -52z m-490 11 c0 -22 -13 -25 -29
-6 -8 10 -7 17 1 25 15 15 28 6 28 -19z m1520 21 c0 -5 -11 -10 -24 -10 -13 0
-31 -3 -40 -6 -9 -3 -16 -1 -16 4 0 9 17 14 68 21 6 0 12 -3 12 -9z m249 -38
c0 -20 -3 -31 -6 -24 -2 6 -13 12 -24 12 -27 0 -24 20 4 21 22 2 22 2 -1 6
-22 4 -23 5 -5 18 25 18 33 10 32 -33z m-381 27 c-2 -6 -7 -10 -11 -10 -4 1
-16 1 -28 1 -11 0 -17 5 -14 10 8 14 58 13 53 -1z m227 1 c-3 -5 -1 -10 4 -10
6 0 11 5 11 10 0 6 7 10 15 10 8 0 15 -7 15 -15 0 -11 -13 -15 -54 -15 -30 0
-57 4 -61 9 -3 5 8 9 25 9 17 -1 33 2 37 5 10 10 15 8 8 -3z m90 0 c3 -5 0
-10 -7 -11 -10 0 -10 -2 0 -6 16 -6 15 -23 -2 -23 -7 0 -16 11 -18 25 -5 25
14 36 27 15z m165 -21 c0 -13 -5 -17 -17 -13 -17 5 -17 5 0 -6 17 -11 23 -30
10 -30 -18 1 -31 17 -37 46 -7 30 -5 31 18 27 17 -4 26 -12 26 -24z m-1824 6
c16 -8 37 -15 46 -15 9 0 20 -5 24 -11 4 -8 -5 -9 -31 -6 -21 3 -41 10 -45 17
-4 6 -11 11 -16 10 -5 -1 -10 3 -12 9 -5 14 0 14 34 -4z m-106 -25 l22 -31
-51 3 c-44 3 -51 6 -51 24 0 45 49 48 80 4z m641 20 c5 0 9 -7 9 -15 0 -9 -9
-15 -25 -15 -19 0 -25 5 -25 21 0 15 4 19 16 15 9 -3 20 -6 25 -6z m1347 -17
c3 -20 0 -22 -20 -14 -32 12 -38 44 -6 39 15 -2 24 -11 26 -25z m-2078 -15 c0
-5 -13 -8 -30 -8 -16 0 -30 -4 -30 -10 0 -5 14 -10 30 -10 19 0 30 -5 30 -14
0 -8 2 -20 3 -28 2 -7 2 -10 0 -5 -3 4 -15 7 -28 7 -13 0 -27 5 -30 10 -4 6
-11 8 -16 5 -11 -7 -11 12 0 39 10 25 53 48 63 33 4 -7 8 -15 8 -19z m620 13
c0 -18 -23 -35 -33 -24 -7 6 15 43 25 43 5 0 8 -9 8 -19z m330 7 c0 -9 4 -8
10 2 5 8 10 10 10 3 0 -6 9 -9 20 -6 11 3 20 0 20 -6 0 -6 -8 -11 -17 -12 -10
0 -28 -2 -40 -3 -13 -2 -23 2 -23 8 0 6 -4 5 -9 -3 -5 -8 -11 -9 -15 -3 -4 6
2 15 11 21 24 14 33 13 33 -1z m379 -9 c-11 -7 -11 -9 -1 -9 7 0 10 -4 7 -10
-3 -5 0 -10 8 -10 8 0 17 -7 21 -15 7 -20 -9 -18 -64 6 -30 13 -37 18 -20 16
17 -1 24 2 22 12 -3 16 18 32 31 24 5 -3 3 -9 -4 -14z m95 13 c3 -5 -10 -14
-29 -20 -19 -5 -33 -6 -29 -1 3 5 0 9 -5 9 -6 0 -11 5 -11 10 0 12 67 14 74 2z
m716 -29 c0 -35 -34 -27 -38 9 -3 22 0 26 17 21 14 -4 21 -14 21 -30z m-1984
0 c-3 -8 -1 -23 4 -34 7 -12 7 -19 1 -19 -9 0 -41 55 -41 71 0 4 9 5 21 2 12
-4 18 -11 15 -20z m984 17 c20 -7 16 -8 -22 -9 -27 -1 -48 4 -48 9 0 12 34 12
70 0z m95 0 c8 -13 -35 -13 -55 0 -11 7 -7 10 17 10 17 0 35 -4 38 -10z m282
-52 c-5 -61 -11 -62 -87 -25 -63 31 -59 49 15 63 33 7 64 12 68 13 4 1 6 -23
4 -51z m38 -36 c-10 -56 -17 -29 -9 35 6 42 9 50 12 29 2 -16 1 -45 -3 -64z
m128 73 c-3 -17 -65 -28 -74 -13 -16 24 -9 29 34 26 23 -2 41 -7 40 -13z m105
-3 c3 -10 -7 -12 -39 -10 -24 2 -44 9 -47 16 -3 10 7 12 39 10 24 -2 44 -9 47
-16z m-1579 -18 c-11 -14 3 -18 49 -17 6 1 12 -3 12 -8 0 -5 -21 -9 -46 -9
-36 0 -45 3 -41 14 3 8 1 17 -6 20 -17 7 12 26 30 19 10 -4 11 -9 2 -19z m859
4 c-7 -19 -38 -22 -38 -4 0 10 9 16 21 16 12 0 19 -5 17 -12z m72 -3 c0 -10
-10 -15 -30 -15 -20 0 -30 5 -30 15 0 10 10 15 30 15 20 0 30 -5 30 -15z m78
9 c36 -10 25 -24 -18 -24 -31 0 -38 3 -34 15 7 16 17 18 52 9z m702 -4 c4 0 8
-30 9 -66 0 -46 -3 -64 -11 -62 -16 6 -38 118 -24 118 6 0 4 5 -4 11 -12 9
-12 10 3 5 10 -3 22 -6 27 -6z m153 3 c3 -5 8 -38 12 -75 l7 -68 -26 2 c-24 2
-26 5 -24 53 l1 50 7 -45 7 -45 1 42 c1 23 -2 44 -7 47 -5 3 -11 15 -14 26 -4
15 0 20 13 20 11 0 21 -3 23 -7z m-1093 -18 c0 -19 -66 -21 -73 -2 -3 7 -6 5
-6 -5 -1 -10 -7 -19 -13 -20 -7 0 -24 -2 -38 -3 -14 -2 -37 -6 -52 -10 -18 -5
-28 -3 -28 4 0 6 9 11 19 11 11 0 26 7 34 15 8 8 17 12 20 9 3 -3 14 -1 24 5
29 17 113 14 113 -4z m1031 5 c15 -9 19 -22 19 -70 0 -41 -4 -60 -12 -61 -10
0 -10 -2 0 -6 6 -2 12 -14 12 -25 0 -20 -1 -21 -20 -3 -12 11 -20 32 -21 54
-1 33 -2 34 -10 11 -7 -20 -8 -17 -4 15 3 22 5 52 5 68 0 30 3 32 31 17z
m-1893 -12 c17 -17 15 -48 -3 -43 -50 16 -48 14 -34 32 13 15 11 15 -12 -1
-25 -15 -28 -16 -43 -1 -9 9 -16 18 -16 21 0 10 97 3 108 -8z m250 0 c-7 -19
-38 -22 -38 -4 0 10 9 16 21 16 12 0 19 -5 17 -12z m246 -2 c10 4 13 -8 13
-45 0 -42 -3 -50 -21 -55 -34 -9 -36 -8 -36 23 0 25 3 28 28 24 19 -3 23 -2
13 5 -7 5 -11 14 -7 20 3 6 2 13 -4 17 -5 3 -10 12 -9 18 0 9 2 9 5 0 3 -7 11
-10 18 -7z m1076 -15 c0 -16 3 -36 6 -45 5 -13 -2 -16 -40 -16 -25 0 -46 4
-46 9 0 5 -3 22 -6 39 -6 28 -4 31 22 35 62 9 64 8 64 -22z m100 2 c0 -16 3
-38 6 -50 6 -21 3 -23 -34 -23 -36 0 -40 3 -46 31 -12 63 -9 69 34 69 37 0 40
-2 40 -27z m84 5 c3 -13 7 -38 9 -57 4 -33 4 -33 -31 -27 -43 7 -48 12 -32 31
7 8 10 28 8 45 -4 26 -1 30 19 30 15 0 24 -7 27 -22z m-1369 -9 c4 -5 21 -8
38 -5 25 5 27 4 12 -3 -11 -5 -14 -10 -7 -10 17 -1 15 -58 -3 -65 -11 -4 -15
3 -16 27 l-2 32 -6 -34 c-3 -19 -12 -36 -18 -39 -15 -4 -18 24 -3 33 6 3 5 16
-2 33 -7 15 -12 28 -13 28 0 1 -22 -1 -48 -6 -45 -7 -77 3 -40 13 35 9 102 7
108 -4z m185 1 c0 -5 -8 -10 -17 -11 -11 0 -13 -3 -5 -6 18 -7 15 -20 -8 -26
-21 -5 -25 7 -14 37 7 17 44 22 44 6z m49 -7 c-10 -11 -10 -14 -1 -9 7 4 12 2
12 -4 0 -7 -7 -9 -16 -6 -9 3 -20 6 -25 6 -5 0 -9 7 -9 15 0 10 10 15 26 15
24 0 25 -2 13 -17z m331 2 c0 -8 -9 -15 -20 -15 -20 0 -26 11 -13 23 12 13 33
7 33 -8z m70 5 c0 -5 -9 -10 -20 -10 -11 0 -23 0 -27 -1 -4 0 -9 4 -11 10 -2
6 10 11 27 11 17 0 31 -4 31 -10z m-1240 -20 c0 -5 -8 -10 -17 -10 -15 0 -16
-2 -3 -10 10 -7 -1 -8 -35 -4 -55 8 -65 12 -48 22 19 12 103 14 103 2z m368
-17 c3 -19 -1 -23 -21 -23 -39 0 -57 10 -57 32 0 16 6 19 38 16 30 -2 38 -7
40 -25z m141 7 c29 0 31 -3 31 -36 0 -31 -3 -35 -22 -32 -16 2 -25 12 -29 33
-5 23 -7 25 -8 8 -1 -27 -13 -29 -32 -7 -10 13 -10 17 2 25 10 6 10 9 2 9 -7
0 -13 5 -13 10 0 7 6 7 19 0 11 -5 33 -10 50 -10z m823 14 c3 -3 4 -14 1 -25
-8 -28 -73 -28 -73 0 0 18 12 24 56 30 6 0 13 -2 16 -5z m58 -21 c0 -22 -2
-25 -10 -13 -8 13 -10 13 -10 1 0 -11 -3 -12 -11 -4 -8 8 -8 15 2 27 21 23 29
19 29 -11z m92 2 c5 -23 2 -25 -28 -25 -21 0 -34 5 -34 13 0 8 -4 7 -10 -3
-11 -17 -13 -1 -4 24 4 10 18 16 39 16 27 0 34 -4 37 -25z m103 -15 c8 0 15
-4 15 -10 0 -5 -20 -10 -45 -10 -34 0 -47 5 -55 19 -19 36 -11 42 30 21 21
-11 46 -20 55 -20z m-1496 19 c48 -17 37 -30 -24 -27 -68 4 -76 25 -14 37 3 0
20 -4 38 -10z m110 0 c45 -16 38 -24 -19 -24 -52 0 -58 3 -38 23 15 15 17 15
57 1z m217 -3 c17 -18 18 -26 1 -26 -7 0 -18 9 -25 20 -14 24 2 28 24 6z m584
0 c0 -10 -10 -14 -30 -14 -33 1 -40 14 -12 21 32 9 42 7 42 -7z m65 -1 c12
-13 18 -105 6 -105 -5 0 -13 26 -19 58 -8 48 -10 51 -11 21 -1 -31 -5 -38 -26
-43 -14 -4 -24 -10 -21 -15 3 -4 -8 -8 -24 -8 -27 0 -30 3 -30 34 0 31 2 33
35 33 26 0 35 -4 35 -17 0 -22 13 -8 17 18 2 12 -1 18 -7 14 -5 -3 -10 1 -10
9 0 17 39 18 55 1z m-485 -30 c0 -24 -5 -35 -15 -35 -10 0 -15 11 -15 35 0 24
5 35 15 35 10 0 15 -11 15 -35z m660 26 c0 -6 -4 -13 -10 -16 -5 -3 -10 -26
-10 -51 0 -32 -4 -44 -15 -44 -12 0 -15 13 -15 60 0 57 1 60 25 60 14 0 25 -4
25 -9z m-110 -20 c0 -10 2 -34 5 -52 l5 -34 -14 35 c-17 42 -20 70 -6 70 6 0
10 -8 10 -19z m40 -8 c0 -16 3 -38 6 -50 5 -16 2 -23 -9 -23 -9 0 -17 14 -21
38 -9 54 -8 62 9 62 10 0 15 -10 15 -27z m-1190 -5 c0 -5 -12 -29 -26 -53 -33
-57 -54 -51 -54 14 0 26 2 50 5 52 8 9 75 -3 75 -13z m800 -5 c0 -16 3 -38 6
-50 5 -18 2 -23 -14 -23 -23 0 -35 41 -21 77 12 32 29 29 29 -4z m60 8 c0 -40
-13 -81 -26 -81 -11 0 -14 11 -12 39 2 21 6 37 11 34 4 -2 7 0 7 6 0 5 -6 12
-12 14 -7 3 -3 6 10 6 15 1 22 -5 22 -18z m78 -30 c-3 -34 -5 -36 -42 -39 -36
-3 -38 -2 -32 20 4 13 10 32 13 44 4 16 11 19 34 16 28 -4 30 -7 27 -41z m761
30 c8 -5 15 -21 17 -36 3 -26 2 -27 -34 -20 -45 8 -44 8 -36 29 4 9 13 15 20
12 8 -3 11 0 7 10 -6 16 5 18 26 5z m-1439 -20 c5 -11 9 -30 7 -42 -1 -12 3
-24 9 -26 8 -3 10 10 7 42 -4 27 -2 45 5 45 5 0 12 -6 14 -12 7 -21 4 -88 -4
-88 -5 0 -27 0 -50 1 -37 1 -39 2 -18 9 23 7 22 8 -11 9 -20 1 -62 12 -93 26
-62 27 -76 30 -76 15 0 -5 3 -9 8 -8 10 3 85 -23 96 -33 14 -13 -31 -11 -55 1
-14 8 -25 7 -41 -5 -13 -8 -37 -15 -55 -15 l-32 0 26 50 26 50 113 0 c102 0
114 -2 124 -19z m184 3 c18 -17 21 -34 7 -34 -5 0 -12 8 -14 18 -4 13 -5 11
-6 -5 -1 -31 -31 -30 -31 0 0 39 18 48 44 21z m894 -34 c-18 -42 -48 -40 -48
3 0 24 -3 28 -10 17 -8 -13 -10 -13 -10 2 0 12 10 18 38 20 44 4 48 -2 30 -42z
m70 22 c2 -14 -2 -22 -12 -22 -19 0 -29 17 -22 36 8 22 30 12 34 -14z m410 -1
c3 -21 1 -23 -25 -17 l-28 6 28 -15 c15 -9 25 -20 22 -25 -4 -6 1 -10 9 -10 9
0 16 4 16 9 0 5 18 8 40 8 25 -1 40 -7 40 -15 0 -7 -6 -12 -12 -10 -7 1 -30
-1 -51 -5 -21 -5 -44 -4 -55 2 -9 6 -12 11 -7 12 6 1 -6 4 -25 8 -32 5 -35 9
-38 43 l-3 38 43 -3 c36 -2 44 -6 46 -26z m-1430 -13 l3 -32 -26 24 c-31 29
-32 40 -2 40 18 0 23 -6 25 -32z m1132 11 c0 -17 -4 -20 -22 -15 -13 3 -31 6
-40 6 -10 0 -18 7 -18 15 0 11 11 15 40 15 34 0 40 -3 40 -21z m398 -3 c6 -27
-12 -39 -47 -31 -25 5 -31 12 -31 31 0 23 3 25 37 22 27 -2 39 -8 41 -22z
m-1574 -13 c19 -23 19 -23 -2 -23 -17 0 -22 6 -22 27 0 14 1 24 3 22 1 -2 11
-14 21 -26z m406 -3 l0 -29 -90 0 c-69 0 -90 4 -90 14 0 22 18 27 29 8 10 -17
10 -17 11 0 0 9 7 17 16 17 8 0 12 -4 9 -10 -3 -5 -2 -10 4 -10 5 0 11 5 13
12 2 6 24 14 49 18 24 4 45 8 47 9 1 0 2 -12 2 -29z m880 15 c0 -11 -12 -15
-50 -15 -38 0 -50 4 -50 15 0 11 12 15 50 15 38 0 50 -4 50 -15z m380 -20 c0
-33 -2 -35 -35 -35 -33 0 -35 2 -35 35 0 33 2 35 35 35 33 0 35 -2 35 -35z
m40 -16 c0 -21 -4 -39 -10 -39 -5 0 -10 10 -10 23 0 12 -3 32 -6 45 -5 18 -3
21 10 16 11 -4 16 -18 16 -45z m164 15 c11 -28 7 -34 -24 -34 -25 0 -30 4 -30
25 0 20 5 25 24 25 13 0 27 -7 30 -16z m-1666 -3 c21 -2 13 -19 -10 -24 -20
-4 -19 -4 5 -6 36 -1 35 -17 -3 -24 -33 -7 -60 0 -60 15 0 7 5 6 13 -1 10 -8
14 -7 14 4 0 15 -14 19 -49 16 -10 -1 -18 2 -18 8 0 10 39 18 75 14 11 -1 26
-2 33 -2z m967 -11 c15 -6 8 -9 -27 -9 -27 -1 -48 4 -48 9 0 12 47 12 75 0z
m108 -5 c2 -12 -49 -19 -71 -9 -13 6 -11 9 13 14 37 10 55 8 58 -5z m-1198 -5
c-3 -5 3 -10 14 -10 21 0 37 -17 26 -28 -3 -3 -9 -1 -13 6 -6 8 -12 6 -22 -8
-10 -14 -25 -20 -50 -19 -19 0 -29 3 -22 6 18 7 15 20 -8 26 -28 7 -25 27 5
27 15 0 25 -6 25 -14 0 -8 7 -16 14 -19 10 -4 13 -1 9 10 -3 8 0 19 8 24 18
11 22 11 14 -1z m1715 -11 c12 -22 8 -35 -8 -25 -13 8 -22 46 -11 46 4 0 13
-9 19 -21z m-1067 -9 c5 -18 0 -20 -59 -20 -36 0 -64 4 -64 10 0 6 26 10 58
11 41 0 51 3 37 9 -19 8 -19 9 1 9 14 1 24 -7 27 -19z m94 6 c3 -3 2 -10 -2
-16 -5 -9 -10 -9 -18 -1 -6 6 -24 11 -39 11 -15 0 -28 5 -28 10 0 10 77 7 87
-4z m-961 -5 c5 -5 23 -11 39 -14 25 -3 24 -4 -10 -5 -54 -2 -91 8 -73 19 17
11 32 11 44 0z m1024 0 c0 -5 -9 -13 -20 -16 -11 -4 -20 -15 -20 -26 0 -17 -3
-18 -21 -9 -19 11 -20 9 -13 -24 4 -23 2 -36 -4 -36 -6 0 -13 12 -15 28 -4 25
-4 25 -6 -5 -2 -55 -41 -33 -41 23 0 32 1 33 48 36 38 2 46 6 44 21 -2 12 4
17 23 17 14 0 25 -4 25 -9z m308 -10 c4 -12 -11 -14 -57 -5 -17 4 -31 10 -31
15 0 13 84 3 88 -10z m242 -2 c0 -5 -11 -9 -25 -9 -14 0 -25 6 -25 14 0 9 8
12 25 8 14 -2 25 -8 25 -13z m-840 1 c0 -5 -24 -9 -55 -9 -30 1 -52 6 -49 10
7 12 104 11 104 -1z m680 -6 c0 -11 -5 -14 -16 -10 -9 3 -24 6 -35 6 -10 0
-19 5 -19 10 0 6 16 10 35 10 25 0 35 -4 35 -16z m100 7 c0 -12 -28 -18 -57
-13 -37 7 -26 19 17 20 22 1 40 -2 40 -7z m-1828 -13 c-19 -9 -22 -17 -16 -37
4 -14 6 -34 6 -44 0 -9 3 -15 9 -12 12 8 11 39 -2 52 -11 11 -5 33 9 33 4 0 8
-45 10 -101 2 -79 0 -100 -10 -96 -9 3 -12 19 -10 48 4 49 -7 48 -17 -2 -6
-31 -8 -33 -57 -33 l-51 -1 -12 56 c-15 73 -14 136 2 142 6 2 46 5 87 5 62 1
71 -1 52 -10z m282 -8 c17 0 19 -2 6 -11 -11 -7 1 -9 43 -4 l57 6 0 -34 c0
-36 8 -32 -116 -63 -19 -5 -21 -2 -17 20 5 26 6 26 24 10 11 -10 21 -15 24
-12 3 3 -4 13 -15 23 -11 10 -20 27 -20 38 0 16 -3 17 -15 7 -8 -7 -12 -16 -9
-21 3 -5 3 -22 -1 -37 -5 -26 -12 -29 -88 -45 -119 -25 -153 -21 -112 13 17
14 21 45 5 35 -6 -4 -8 -10 -5 -15 3 -5 1 -11 -5 -15 -13 -8 -13 60 0 85 9 16
21 19 80 18 39 -1 73 2 77 6 5 4 21 5 37 2 16 -3 38 -6 50 -6z m1658 -67 l16
-63 -38 0 c-60 0 -66 5 -62 55 3 35 8 45 25 48 18 3 17 5 -5 6 -16 0 -28 5
-28 10 0 10 61 20 71 11 3 -3 13 -33 21 -67z m100 27 c0 -27 1 -56 2 -62 1 -8
-14 -14 -35 -16 -36 -3 -36 -2 -43 40 -4 24 -9 53 -13 66 -5 20 -2 22 41 22
l46 0 2 -50z m82 38 c3 -7 7 -36 9 -63 5 -49 5 -51 -21 -53 -41 -3 -49 8 -57
71 l-7 57 36 0 c21 0 38 -5 40 -12z m48 -45 c0 -32 2 -62 3 -68 2 -5 3 -18 4
-27 0 -10 8 -18 16 -18 12 0 15 -15 15 -71 0 -69 -1 -71 -22 -65 -13 3 -29 6
-35 6 -7 0 -13 7 -13 16 0 8 -5 12 -11 9 -6 -4 -22 4 -37 16 -23 21 -24 21 -9
2 13 -15 15 -23 7 -28 -13 -8 -12 -8 -29 20 -11 19 -12 19 -6 -3 6 -21 4 -23
-26 -20 -35 3 -54 28 -22 28 24 0 43 19 43 42 0 16 3 16 47 -3 26 -11 51 -25
55 -32 16 -26 17 6 3 119 -18 145 -18 134 0 134 11 0 15 -14 17 -57z m-1492
21 c0 -15 -20 -18 -69 -8 -42 9 -39 22 5 22 19 0 38 3 41 6 9 9 23 -3 23 -20z
m101 0 c18 -16 29 -18 29 -4 0 6 -7 10 -17 10 -25 0 -12 6 27 14 25 4 31 3 20
-4 -13 -8 -12 -10 4 -10 14 0 17 -5 12 -22 -3 -13 -6 -29 -6 -35 0 -9 -18 -13
-54 -13 -54 0 -54 0 -64 38 l-10 37 -1 -34 -1 -34 -47 7 c-26 3 -54 13 -63 22
-16 16 -21 17 65 -1 23 -5 24 -3 18 26 l-6 30 39 -7 c21 -3 46 -13 55 -20z
m196 11 c3 -9 3 -18 1 -21 -9 -9 -38 8 -38 22 0 19 29 18 37 -1z m61 -39 l-3
-41 -42 0 c-38 0 -43 2 -43 22 0 18 5 22 23 20 18 -2 22 2 19 24 -2 23 1 26
23 21 24 -4 26 -8 23 -46z m148 5 c-1 -27 -4 -52 -7 -56 -3 -3 -32 -3 -63 1
l-56 7 0 43 0 43 58 4 c31 2 60 4 63 5 3 1 5 -20 5 -47z m334 2 c0 -27 3 -78
7 -115 5 -62 4 -68 -13 -69 -17 -1 -17 -2 -1 -6 11 -3 17 -14 17 -36 0 -24 3
-28 10 -17 8 13 10 12 11 -5 1 -11 3 -30 4 -42 2 -17 -1 -21 -13 -14 -8 5 -23
6 -33 4 -13 -4 -19 0 -19 12 0 14 3 15 14 6 11 -9 15 -8 20 4 3 9 2 14 -3 11
-16 -10 -31 20 -36 74 -3 29 -10 80 -15 114 -13 78 -13 99 0 91 6 -4 10 -3 9
2 -4 22 3 33 21 33 17 0 20 -7 20 -47z m78 37 c9 -5 29 -14 43 -19 20 -7 31
-25 52 -83 15 -40 27 -78 27 -85 0 -6 -19 -14 -42 -17 -84 -11 -92 -15 -25
-12 61 3 67 2 67 -16 0 -17 -4 -19 -27 -13 -16 4 -52 11 -82 16 -29 4 -56 11
-58 13 -9 9 9 226 18 226 5 0 17 -4 27 -10z m98 -5 c4 -8 10 -15 16 -15 5 0 6
5 3 10 -3 6 -1 10 4 10 6 0 11 -7 11 -15 0 -8 -5 -15 -11 -15 -17 0 -49 20
-49 30 0 16 20 12 26 -5z m563 -32 l-1 -48 -13 45 c-19 65 -19 10 0 -60 17
-63 19 -81 6 -61 -14 22 -34 138 -27 156 3 8 12 15 21 15 11 0 15 -11 14 -47z
m-1826 -3 c4 -15 0 -20 -14 -20 -15 0 -19 7 -19 31 0 26 3 29 14 20 8 -6 16
-21 19 -31z m892 -2 c-7 -31 -8 -32 -18 -11 -7 16 -6 27 3 38 18 22 23 12 15
-27z m61 15 c-3 -16 -8 -54 -12 -85 -7 -63 -7 -63 -33 -48 -20 10 -20 30 -1
111 9 38 16 49 32 49 16 0 19 -5 14 -27z m422 0 l23 -28 -17 28 c-16 26 -16
27 5 27 16 0 21 -6 21 -24 0 -33 -9 -37 -58 -24 -31 8 -42 16 -42 29 0 29 40
24 68 -8z m397 4 c-3 -12 -2 -42 3 -65 6 -23 6 -44 2 -47 -12 -7 -24 79 -16
110 4 14 9 25 11 25 3 0 3 -10 0 -23z m125 -47 c-21 -50 -30 -45 -30 17 l0 57
22 -21 c19 -19 20 -25 8 -53z m-900 -30 c7 -25 15 -40 17 -33 2 6 -3 37 -11
68 -10 40 -11 55 -3 52 14 -4 25 -68 26 -144 1 -41 -3 -52 -16 -56 -14 -4 -12
-5 5 -6 15 -1 22 -7 22 -22 0 -19 -2 -20 -17 -8 -63 47 -65 53 -57 152 5 64 9
84 14 67 4 -14 13 -45 20 -70z m-941 -7 c0 -63 -3 -82 -9 -65 -5 12 -10 38
-12 58 -1 19 -6 38 -10 40 -4 3 -8 16 -8 30 0 17 5 24 20 24 19 0 20 -6 19
-87z m102 58 c17 -20 102 -46 119 -36 11 7 18 -14 26 -75 4 -28 11 -53 16 -56
6 -4 8 6 4 25 -3 17 -9 45 -12 62 -5 24 -3 30 7 26 8 -4 33 -12 57 -19 l43
-12 -6 -71 c-4 -38 -8 -71 -10 -73 -3 -3 -220 16 -272 24 -28 4 -34 10 -44 47
-7 25 -9 68 -5 105 5 43 3 62 -4 57 -5 -3 -10 1 -10 11 0 14 7 16 38 11 20 -4
44 -15 53 -26z m327 -3 c3 -24 0 -28 -22 -28 -22 0 -26 4 -26 31 0 26 3 30 23
27 16 -2 23 -11 25 -30z m805 -2 c9 -7 17 -24 16 -37 l-1 -24 -8 25 -8 25 -1
-25 c-2 -23 -3 -23 -16 9 -8 18 -15 35 -15 37 0 8 15 3 33 -10z m117 -43 c0
-9 -14 -13 -45 -13 -41 0 -45 2 -45 24 0 22 1 23 45 13 26 -6 45 -16 45 -24z
m-1394 -15 c12 -58 7 -118 -11 -118 -8 0 -16 14 -19 33 -10 68 -14 116 -8 121
15 16 30 2 38 -36z m1968 -17 c3 -14 2 -51 -2 -81 l-8 -55 -17 91 c-9 51 -17
95 -17 99 0 19 39 -30 44 -54z m-2017 -33 c4 -40 7 -80 5 -88 -1 -8 -4 -35 -7
-60 -16 -157 -14 -149 -53 -160 -56 -15 -72 -13 -72 11 0 16 4 19 18 14 54
-22 69 -15 20 10 -18 9 -23 19 -21 47 3 44 61 200 72 193 5 -2 11 -19 15 -36
3 -18 9 -29 13 -26 7 8 -16 87 -30 102 -5 6 -8 5 -6 -5 2 -8 -4 -27 -14 -41
-19 -28 -67 -160 -67 -184 0 -21 -9 -19 -38 8 -28 24 -20 5 11 -30 13 -15 18
-30 13 -46 -5 -20 -10 -23 -32 -19 l-27 5 6 78 c6 95 10 101 44 88 38 -14 56
6 26 30 -12 10 -19 21 -16 25 4 3 -1 6 -10 6 -21 0 -21 -1 -2 43 16 39 20 76
4 42 -8 -18 -8 -18 -6 5 2 20 10 27 40 34 30 8 41 7 49 -5 8 -11 9 -11 5 3 -6
17 5 26 35 27 14 1 18 -13 25 -71z m843 -15 c0 -68 -2 -74 -17 -68 -10 4 -53
10 -95 13 l-78 5 0 64 c0 63 1 65 23 59 12 -3 43 -6 69 -6 40 0 47 -3 50 -22
5 -34 30 -36 28 -2 -3 40 -1 46 10 39 6 -3 10 -40 10 -82z m-320 60 c0 -15 2
-16 10 -3 8 13 10 12 10 -2 0 -19 -11 -22 -47 -12 -31 9 -29 34 2 34 17 0 25
-6 25 -17z m110 -47 l0 -65 -32 -4 -33 -4 37 -1 36 -2 4 -66 c1 -36 0 -68 -4
-71 -5 -2 -8 -12 -7 -21 0 -14 2 -14 8 2 7 18 8 18 14 2 12 -31 8 -33 -45 -25
-105 16 -98 10 -98 98 0 58 3 78 13 78 11 0 13 -17 10 -74 -2 -56 0 -73 10
-73 11 0 13 23 12 110 -2 74 1 110 8 110 7 0 7 4 -1 12 -7 7 -12 22 -12 35 0
20 5 23 40 23 l40 0 0 -64z m255 -22 l11 -59 8 43 c4 23 11 42 15 42 15 0 49
-46 53 -73 l5 -28 -61 3 -61 3 -3 68 c-4 88 18 88 33 1z m455 54 c0 -9 3 -9 8
-2 4 6 26 9 50 6 l42 -4 0 -44 c0 -28 -4 -44 -12 -44 -7 0 -5 -5 5 -11 9 -5
17 -18 17 -28 0 -15 -13 -21 -67 -31 -48 -8 -69 -8 -71 -1 -2 6 -8 11 -13 11
-4 0 -6 -6 -3 -14 4 -10 -9 -15 -46 -20 -27 -4 -56 -9 -64 -12 -9 -4 -16 10
-23 45 l-10 49 36 -5 c20 -3 52 -9 71 -14 58 -15 70 -12 70 17 0 21 9 29 53
49 59 27 59 32 -2 10 -39 -13 -41 -13 -41 5 0 10 -4 22 -10 25 -5 3 -10 10
-10 16 0 5 5 9 10 9 6 0 10 -6 10 -12z m321 0 c17 -10 23 -10 26 0 6 17 53 16
53 -2 0 -7 3 -28 6 -45 l7 -32 -34 19 c-19 11 -58 27 -86 37 -29 9 -53 21 -53
26 0 13 57 11 81 -3z m-1837 -45 c-3 -27 -8 -50 -9 -51 -2 -2 -32 3 -67 11
-44 10 -62 18 -60 28 3 11 1 12 -9 2 -21 -21 -36 -15 -41 17 -4 29 -4 30 31
25 20 -3 59 -1 86 4 81 14 77 16 69 -36z m1656 37 c-11 -7 -5 -8 20 -4 45 6
55 -2 64 -50 7 -37 6 -38 -16 -32 -13 3 -38 6 -55 6 -32 0 -33 1 -33 45 0 36
3 45 18 45 14 0 15 -2 2 -10z m-970 -24 c0 -8 -5 -27 -11 -43 -6 -15 -10 -62
-10 -104 1 -76 1 -76 -24 -71 -21 4 -25 9 -24 41 l1 36 8 -30 c6 -22 8 -25 10
-10 5 46 7 83 9 138 1 50 3 57 21 57 11 0 20 -6 20 -14z m30 -36 c0 -28 -14
-48 -23 -33 -8 14 5 73 14 67 5 -3 9 -18 9 -34z m1098 25 c1 -1 -2 -14 -7 -29
-13 -32 -37 -34 -45 -3 -11 42 -8 48 22 41 15 -4 28 -8 30 -9z m-2070 -16 c74
-18 75 -31 4 -26 -43 3 -60 1 -53 -6 6 -6 33 -10 60 -9 46 1 49 -1 54 -26 3
-15 5 -28 4 -29 -1 0 -19 -4 -40 -8 -37 -7 -38 -7 -32 18 4 14 2 28 -3 31 -6
3 -13 -8 -17 -24 -5 -25 -11 -30 -28 -28 -17 2 -23 13 -29 48 -13 74 -6 79 80
59z m507 -56 c-2 -7 0 -13 5 -13 6 0 10 -6 10 -13 0 -8 9 -42 21 -76 11 -35
19 -64 17 -66 -2 -1 -17 -6 -35 -9 l-31 -7 -4 83 c-2 46 -1 87 1 93 3 5 4 26
3 45 l-1 35 9 -30 c6 -16 8 -36 5 -42z m-345 21 c67 -15 90 -28 75 -42 -3 -3
-9 -2 -13 4 -7 11 -22 15 -114 30 -21 4 -38 11 -38 15 0 12 11 11 90 -7z
m1303 -27 c23 -20 39 -44 43 -64 l7 -33 -47 0 c-45 0 -46 0 -46 33 0 24 3 28
10 17 14 -21 12 -9 -5 39 -8 22 -11 41 -7 41 4 0 24 -15 45 -33z m822 -25 c6
-36 4 -41 -9 -36 -11 4 -16 19 -16 52 0 55 15 46 25 -16z m-281 27 c11 -10 -4
-15 -66 -23 -46 -5 -48 -4 -48 19 0 23 2 24 53 18 28 -3 56 -9 61 -14z m-1864
2 c24 -7 24 -8 -12 -20 -40 -13 -58 -9 -58 15 0 15 27 17 70 5z m334 -88 c5
-73 4 -98 -6 -105 -27 -16 -31 -7 -25 60 4 37 7 84 7 105 0 20 4 37 9 37 4 0
11 -44 15 -97z m746 87 c11 -7 0 -10 -37 -10 -28 0 -63 -4 -77 -10 -23 -8 -26
-7 -26 10 0 18 7 20 63 20 34 0 69 -5 77 -10z m-995 -30 c4 -6 4 -19 0 -28 -3
-9 -8 -53 -11 -97 -2 -44 -8 -81 -13 -83 -4 -1 -6 -13 -4 -26 5 -24 -25 -274
-34 -289 -2 -4 -10 -3 -17 2 -13 11 -53 18 -148 28 l-57 5 4 47 c3 25 7 84 9
131 3 47 10 125 18 174 14 99 6 91 128 126 76 21 116 24 125 10z m518 -1 c104
-10 127 -15 122 -26 -3 -8 -5 -25 -5 -37 0 -21 -4 -22 -52 -20 -217 13 -242
11 -150 -13 34 -9 38 -11 15 -9 -18 1 -34 -1 -35 -4 -2 -4 -16 -10 -31 -14
-27 -6 -28 -5 -26 31 0 21 -4 53 -9 71 -13 39 -19 38 171 21z m522 1 c11 -5
16 -9 11 -9 -5 -1 -4 -7 2 -13 6 -7 13 -30 17 -50 6 -34 5 -38 -13 -38 -18 0
-20 5 -16 43 l3 42 -10 -40 -11 -41 -71 2 c-69 2 -65 1 31 -12 27 -3 42 -10
42 -20 0 -11 -16 -14 -74 -14 l-74 0 -10 68 c-5 37 -8 69 -5 72 3 3 32 8 66
11 88 9 90 8 112 -1z m114 -59 c41 -17 40 -31 -3 -31 -47 0 -66 9 -66 30 0 11
-4 22 -10 25 -5 3 -10 13 -10 21 0 12 7 10 29 -8 15 -14 42 -30 60 -37z m31
29 c0 -16 -2 -30 -5 -30 -7 0 -85 52 -85 56 0 2 20 4 45 4 43 0 45 -1 45 -30z
m754 8 c26 -37 21 -55 -14 -50 -16 2 -30 9 -30 16 0 6 -3 21 -6 34 -5 18 -2
22 14 22 12 0 28 -10 36 -22z m-64 -18 c0 -27 -3 -30 -30 -30 -16 0 -30 3 -30
8 0 4 -3 17 -6 30 -6 20 -3 22 30 22 33 0 36 -2 36 -30z m-218 -5 c5 -25 5
-25 -68 -25 -56 0 -74 3 -74 14 0 9 21 17 68 23 37 6 68 11 68 12 1 0 4 -10 6
-24z m132 9 c12 -30 6 -34 -53 -34 -50 0 -59 3 -64 19 -7 28 -1 31 59 31 38 0
53 -4 58 -16z m-329 -33 c20 0 20 0 0 9 -17 7 -14 9 14 9 25 1 32 -2 27 -14
-4 -11 2 -15 26 -15 50 0 29 -7 -52 -19 -75 -10 -89 -6 -90 26 0 14 32 23 45
11 5 -4 18 -8 30 -7z m-105 -23 c0 -10 2 -10 9 0 7 11 9 11 14 0 3 -8 0 -15
-6 -15 -7 0 -21 -4 -31 -9 -15 -6 -17 -4 -11 7 8 12 6 12 -8 0 -15 -12 -17
-11 -17 8 0 16 6 21 25 21 14 0 25 -6 25 -12z m519 -20 c0 -18 -4 -53 -8 -78
-7 -39 -9 -41 -10 -12 0 17 -5 32 -10 32 -5 0 -12 12 -15 28 -4 15 -9 35 -12
45 -4 13 1 17 25 17 28 0 31 -3 30 -32z m79 17 c5 -4 24 -175 20 -185 -2 -6
-24 9 -49 32 l-46 43 9 62 c10 62 10 63 36 57 15 -4 28 -8 30 -9z m-1331 -9
c2 -2 -4 -44 -14 -92 l-18 -89 -51 -3 c-28 -2 -63 3 -80 9 -16 7 -33 11 -38
10 -4 -1 -13 3 -20 8 -6 5 -37 12 -68 16 -58 7 -58 7 -58 41 0 28 5 36 26 45
15 5 35 7 45 4 11 -4 19 -2 19 3 0 6 36 18 80 28 44 9 80 21 80 27 0 9 88 3
97 -7z m534 -4 c20 3 29 0 29 -9 0 -10 -9 -12 -37 -8 -53 9 -63 13 -63 25 0 7
7 7 21 -1 12 -6 34 -9 50 -7z m133 -14 c3 -17 5 -33 3 -35 -2 -2 -50 0 -105 3
-70 5 -102 11 -102 19 0 9 11 10 43 4 61 -12 67 -11 67 10 0 19 17 26 66 30
17 1 23 -6 28 -31z m376 14 c0 -15 -13 -20 -70 -28 -63 -9 -70 -8 -70 8 0 13
12 18 48 23 26 4 52 8 57 10 24 8 35 4 35 -13z m137 1 c4 -9 2 -18 -3 -20 -7
-2 -7 -27 -2 -70 4 -37 6 -68 4 -70 -2 -2 -26 -1 -54 3 l-50 6 -6 62 c-4 33
-10 71 -13 84 -5 21 -2 22 56 22 49 0 63 -4 68 -17z m-1095 -94 c4 -41 5 -80
3 -86 -3 -9 -25 -13 -61 -13 -50 0 -55 2 -49 18 5 9 15 54 23 99 l15 82 31
-13 c30 -12 31 -16 38 -87z m808 71 c0 -17 -7 -20 -45 -20 -25 0 -48 0 -52 -1
-5 0 -9 7 -11 15 -2 11 8 16 40 19 24 2 49 4 56 5 6 1 12 -7 12 -18z m-440 -5
c0 -8 -9 -15 -20 -15 -11 0 -20 7 -20 15 0 8 9 15 20 15 11 0 20 -7 20 -15z
m314 -1 c9 -24 9 -24 -34 -24 -47 0 -57 26 -12 33 15 2 30 5 33 6 4 0 10 -6
13 -15z m-586 -12 c45 -4 55 -8 63 -29 9 -24 13 -25 74 -21 49 3 65 1 65 -9 0
-7 7 -13 16 -13 8 0 12 5 9 10 -4 6 5 10 19 10 27 0 28 -2 41 -84 6 -35 5 -38
-12 -31 -10 5 -92 10 -183 13 l-165 4 -2 62 c-1 33 -5 72 -8 85 -5 20 -3 22
12 16 10 -4 42 -10 71 -13z m862 -6 c0 -7 3 -33 6 -58 l6 -44 -77 -12 c-43 -7
-80 -11 -82 -9 -2 3 -1 29 3 60 l7 55 46 10 c68 14 91 14 91 -2z m171 -97
c-17 -7 -28 21 -29 76 -1 27 1 25 22 -20 20 -44 21 -51 7 -56z m-821 81 c0 -5
-22 -10 -49 -10 -27 0 -56 -3 -65 -6 -11 -4 -16 -1 -16 10 0 13 12 16 65 16
37 0 65 -4 65 -10z m495 -54 c-7 -53 -9 -56 -36 -56 -19 0 -29 -5 -29 -15 0
-10 -10 -15 -32 -15 -18 0 -43 -3 -54 -6 -19 -5 -22 0 -28 43 -4 26 -9 61 -12
76 -5 25 -3 28 12 24 11 -3 55 -3 99 1 44 4 81 7 83 6 2 -1 1 -27 -3 -58z
m-1253 24 c4 -26 1 -30 -19 -30 -18 0 -23 6 -23 24 0 15 7 26 18 29 9 3 18 5
18 6 1 0 4 -12 6 -29z m1043 -30 c4 -30 9 -63 11 -72 5 -16 -4 -18 -99 -18
l-104 0 -7 61 c-4 33 -10 67 -13 75 -5 13 10 15 100 12 l106 -3 6 -55z m375
-90 c0 -57 3 -55 -90 -35 -36 8 -81 15 -100 15 -31 1 -33 2 -15 12 11 6 25 16
30 23 6 6 44 16 85 22 41 6 78 11 83 12 4 0 7 -21 7 -49z m132 17 c4 -6 8 -28
8 -47 l0 -35 -50 3 c-38 3 -50 8 -50 20 0 10 -3 33 -6 53 l-6 37 48 -9 c26 -5
51 -15 56 -22z m44 -18 c-3 -17 -6 -41 -7 -53 0 -20 -1 -21 -9 -1 -15 36 -12
85 6 85 13 0 15 -7 10 -31z m-1233 5 l98 -7 -7 -58 -7 -59 34 6 c19 4 52 10
74 15 22 4 40 7 41 6 1 -1 5 -41 9 -88 l7 -86 -84 14 c-46 8 -142 30 -215 49
-72 19 -138 34 -146 34 -19 0 -19 23 0 118 l15 74 42 -6 c22 -3 85 -8 139 -12z
m387 -5 c3 -2 -31 -5 -75 -8 l-80 -6 3 -30 c3 -31 3 -31 -65 -42 -37 -7 -69
-11 -70 -9 -2 2 1 16 7 31 6 15 8 36 5 46 -5 16 2 19 57 22 59 4 207 1 218 -4z
m-45 -49 c-49 -11 -91 -17 -93 -15 -3 2 -2 10 1 18 3 9 29 14 93 14 l89 2 -90
-19z m678 -15 l37 -6 0 -59 c0 -33 -3 -60 -7 -59 -5 0 -51 6 -103 12 l-95 13
-7 54 c-4 30 -6 60 -4 66 3 8 24 7 73 -2 37 -7 85 -16 106 -19z m67 -25 c0
-11 5 -40 12 -65 13 -48 10 -59 -16 -49 -12 5 -16 20 -16 70 0 36 4 64 10 64
6 0 10 -9 10 -20z m124 -27 c3 -21 6 -57 6 -81 0 -41 -1 -42 -27 -36 -61 15
-68 20 -69 55 0 19 -4 49 -9 67 l-7 32 49 0 50 0 7 -37z"/>
<path d="M374 1708 c-1 -18 -11 -80 -22 -138 -12 -58 -22 -114 -21 -125 1 -11
7 12 15 50 17 83 43 203 50 228 3 10 0 17 -8 17 -8 0 -13 -13 -14 -32z"/>
<path d="M1019 1518 c-7 -34 7 -60 20 -38 6 8 6 17 2 20 -5 3 -11 14 -13 25
-3 17 -5 16 -9 -7z"/>
<path d="M491 1175 c-2 -36 10 -64 25 -58 17 6 19 24 2 21 -7 -2 -15 11 -19
27 -4 19 -7 23 -8 10z"/>
<path d="M1514 87 c-1 -17 4 -22 22 -23 29 -2 30 0 4 26 -25 25 -25 25 -26 -3z"/>
</g>
</svg>
